<svg width={size} height={size} viewBox="0 0 16 16" fill="none" xmlns="http://www.w3.org/2000/svg">
<path fill-rule="evenodd" clip-rule="evenodd" d="M2.47607 12.0719C2.47607 11.9379 2.52935 11.8092 2.62417 11.7144C2.71899 11.6196 2.84761 11.5664 2.98171 11.5664H13.0944C13.2285 11.5664 13.3571 11.6196 13.4519 11.7144C13.5467 11.8092 13.6 11.9379 13.6 12.0719C13.6 12.2061 13.5467 12.3346 13.4519 12.4295C13.3571 12.5243 13.2285 12.5776 13.0944 12.5776H2.98171C2.84761 12.5776 2.71899 12.5243 2.62417 12.4295C2.52935 12.3346 2.47607 12.2061 2.47607 12.0719ZM2.47607 8.0269C2.47607 7.8928 2.52935 7.76419 2.62417 7.66936C2.71899 7.57454 2.84761 7.52127 2.98171 7.52127H13.0944C13.2285 7.52127 13.3571 7.57454 13.4519 7.66936C13.5467 7.76419 13.6 7.8928 13.6 8.0269C13.6 8.16101 13.5467 8.28961 13.4519 8.38444C13.3571 8.47926 13.2285 8.53253 13.0944 8.53253H2.98171C2.84761 8.53253 2.71899 8.47926 2.62417 8.38444C2.52935 8.28961 2.47607 8.16101 2.47607 8.0269ZM2.47607 3.98184C2.47607 3.84774 2.52935 3.71914 2.62417 3.62431C2.71899 3.52948 2.84761 3.47621 2.98171 3.47621H13.0944C13.2285 3.47621 13.3571 3.52948 13.4519 3.62431C13.5467 3.71914 13.6 3.84774 13.6 3.98184C13.6 4.11595 13.5467 4.24456 13.4519 4.33938C13.3571 4.43421 13.2285 4.48748 13.0944 4.48748H2.98171C2.84761 4.48748 2.71899 4.43421 2.62417 4.33938C2.52935 4.24456 2.47607 4.11595 2.47607 3.98184Z" fill="#2A2F39"/>
</svg>
