<svg width="16" height="16" viewBox="0 0 16 16" fill="none" xmlns="http://www.w3.org/2000/svg">
<path fill-rule="evenodd" clip-rule="evenodd" d="M10.0074 4.32666C9.06535 4.32666 8.30164 5.09034 8.30164 6.03238V10.9127C8.30164 11.8547 9.06535 12.6184 10.0074 12.6184H12.2343C13.1763 12.6184 13.94 11.8547 13.94 10.9127V6.03238C13.94 5.09034 13.1763 4.32666 12.2343 4.32666H10.0074ZM11.1607 8.13505L9.10935 4.58194C8.75189 4.80371 8.4825 5.15391 8.3656 5.56808L10.1759 8.70364C10.6469 9.51949 10.3674 10.5626 9.55159 11.0337L8.47215 11.6569C8.64943 12.0219 8.95305 12.3142 9.32615 12.4769L10.1202 12.0185C11.4799 11.2335 11.9457 9.49475 11.1607 8.13505Z" fill="#D5DFEB"/>
<path d="M5.40577 3.85286L3.4772 4.96632C2.66136 5.43734 2.38184 6.48055 2.85286 7.29638L5.29298 11.5228C5.76401 12.3386 6.80721 12.6182 7.62305 12.1471L9.55162 11.0337C10.3675 10.5627 10.647 9.51945 10.176 8.70362L7.73583 4.4772C7.26481 3.66137 6.2216 3.38184 5.40577 3.85286Z" fill="#2A2F39"/>
</svg>
