<svg width="16" height="16" viewBox="0 0 16 16" fill="none" xmlns="http://www.w3.org/2000/svg">
<path d="M7.06288 5.80076C8.10298 4.75504 10.7039 6.58459 7.06288 8.93733C3.42191 6.58459 6.02278 4.75567 7.06288 5.80076Z" fill="#D5DFEB"/>
<path d="M11.1258 7.06213C11.1271 7.92648 10.8515 8.76853 10.3394 9.46484C10.3644 9.48363 10.3882 9.50363 10.4113 9.52611L12.8178 11.9326C12.9351 12.0498 13.001 12.2088 13.0011 12.3746C13.0011 12.5404 12.9353 12.6994 12.8181 12.8167C12.7009 12.934 12.5419 12.9999 12.3761 13C12.2103 13.0001 12.0513 12.9343 11.9339 12.8171L9.52747 10.4106C9.50484 10.3882 9.48395 10.3642 9.465 10.3387H9.46621C8.72979 10.879 7.83279 11.1554 6.91998 11.1233C6.00717 11.0911 5.13181 10.7524 4.43518 10.1616C3.73855 9.57089 3.2613 8.76263 3.08045 7.86736C2.89959 6.97206 3.02569 6.04195 3.43839 5.22713C3.85108 4.4123 4.52631 3.76031 5.35507 3.37637C6.18383 2.99244 7.11779 2.89896 8.00621 3.11103C8.89463 3.3231 9.68568 3.82834 10.2517 4.54521C10.8177 5.26208 11.1256 6.14876 11.1258 7.06213ZM7.06288 10.4999C7.51435 10.4999 7.96138 10.4111 8.37847 10.2383C8.79558 10.0655 9.17458 9.81226 9.49379 9.49305C9.813 9.17379 10.0663 8.79484 10.239 8.37774C10.4118 7.96063 10.5007 7.51359 10.5007 7.06213C10.5007 6.61067 10.4118 6.16363 10.239 5.74654C10.0663 5.32944 9.813 4.95046 9.49379 4.63123C9.17458 4.31199 8.79558 4.05877 8.37847 3.886C7.96138 3.71323 7.51435 3.62431 7.06288 3.62431C6.15112 3.62431 5.27669 3.98651 4.63198 4.63123C3.98726 5.27594 3.62506 6.15036 3.62506 7.06213C3.62506 7.9739 3.98726 8.84832 4.63198 9.49305C5.27669 10.1377 6.15112 10.4999 7.06288 10.4999Z" fill="#2A2F39"/>
</svg>
