<svg width="16" height="16" viewBox="0 0 16 16" fill="none" xmlns="http://www.w3.org/2000/svg">
<path fill-rule="evenodd" clip-rule="evenodd" d="M8.4638 9.21353C8.4638 9.21353 8.58813 9.27666 8.9796 9.21353C10.7293 8.93143 9.95053 6.35508 7 5.7229C7.40287 5.63381 7.85493 5.58333 8.35747 5.58333C12.4142 5.58333 13.7092 8.89167 11.7129 9.21353C11.3215 9.27666 11.2697 9.46607 11.2697 9.46607V11.75C11.2697 12.1182 10.9713 12.4167 10.6031 12.4167H7.79713C8.16533 12.4167 8.4638 12.1182 8.4638 11.75V9.21353Z" fill="#D5DFEB"/>
<path d="M8.97956 9.21354L8.92649 8.88446L8.97956 9.21354ZM8.46376 9.21354L8.61469 8.91633C8.51136 8.86386 8.38816 8.86883 8.28943 8.92945C8.19063 8.99007 8.13043 9.09765 8.13043 9.21354H8.46376ZM6.99996 5.72291L6.92798 5.39744C6.77491 5.43129 6.66611 5.56723 6.66663 5.72401C6.66715 5.88077 6.77683 6.016 6.93013 6.04884L6.99996 5.72291ZM11.7129 9.21354L11.6599 8.88446L11.7129 9.21354ZM11.2697 9.46607L10.9482 9.37822C10.9403 9.40685 10.9364 9.43639 10.9364 9.46607H11.2697ZM7.79709 12.0833C7.61301 12.0833 7.46377 12.2326 7.46377 12.4167C7.46377 12.6007 7.61301 12.75 7.79709 12.75V12.0833ZM8.92649 8.88446C8.75283 8.91247 8.65329 8.90999 8.60756 8.90549C8.58496 8.90326 8.57616 8.90059 8.57843 8.90123C8.57956 8.90154 8.58343 8.90266 8.58963 8.90505C8.59269 8.90624 8.59636 8.90774 8.60056 8.90961C8.60269 8.91054 8.60489 8.91157 8.60729 8.91268C8.60843 8.91324 8.60963 8.91383 8.61089 8.91443C8.61149 8.91474 8.61216 8.91505 8.61276 8.91537C8.61309 8.91552 8.61343 8.91568 8.61369 8.91585C8.61389 8.91593 8.61409 8.91605 8.61423 8.91609C8.61443 8.91621 8.61469 8.91633 8.46376 9.21354C8.31283 9.51075 8.31309 9.51087 8.31336 9.511C8.31343 9.51104 8.31363 9.51116 8.31383 9.51125C8.31416 9.51141 8.31449 9.51157 8.31483 9.51174C8.31549 9.51207 8.31616 9.51241 8.31683 9.51274C8.31816 9.51341 8.31956 9.51408 8.32103 9.51476C8.32383 9.51611 8.32683 9.51748 8.32996 9.51886C8.33616 9.52162 8.34289 9.52442 8.35009 9.52721C8.36463 9.53281 8.38129 9.53837 8.40016 9.54361C8.43796 9.55411 8.48476 9.56328 8.54216 9.56894C8.65649 9.58021 8.81483 9.57774 9.03263 9.54263L8.92649 8.88446ZM6.93013 6.04884C8.32709 6.34816 9.15743 7.09631 9.44889 7.73746C9.59523 8.05935 9.59596 8.32553 9.51776 8.50477C9.44529 8.67097 9.27643 8.82803 8.92649 8.88446L9.03263 9.54263C9.55749 9.45799 9.94743 9.18723 10.1288 8.77126C10.3046 8.36834 10.2542 7.89803 10.0558 7.46154C9.65769 6.58595 8.62336 5.72983 7.06979 5.39697L6.93013 6.04884ZM7.07194 6.04837C7.44937 5.9649 7.87723 5.91667 8.35743 5.91667V5.25C7.83263 5.25 7.35627 5.30272 6.92798 5.39744L7.07194 6.04837ZM8.35743 5.91667C10.2983 5.91667 11.5208 6.70639 12.0282 7.46332C12.2855 7.84725 12.3421 8.19153 12.2794 8.42367C12.2238 8.62981 12.0544 8.82083 11.6599 8.88446L11.766 9.54263C12.3695 9.44531 12.7869 9.10209 12.9231 8.59739C13.0523 8.11869 12.9059 7.57554 12.582 7.09215C11.9266 6.11445 10.4733 5.25 8.35743 5.25V5.91667ZM11.6599 8.88446C11.4137 8.92415 11.2404 9.00953 11.1225 9.11483C11.0644 9.1667 11.0239 9.21979 10.9962 9.26713C10.9824 9.29061 10.9721 9.31223 10.9644 9.33108C10.9605 9.34049 10.9573 9.3492 10.9546 9.35709C10.9533 9.36104 10.9521 9.36478 10.951 9.36831C10.9505 9.37007 10.95 9.37178 10.9495 9.37343C10.9492 9.37426 10.949 9.37507 10.9488 9.37587C10.9487 9.37627 10.9486 9.37666 10.9484 9.37705C10.9484 9.37725 10.9483 9.37754 10.9483 9.37764C10.9482 9.37793 10.9482 9.37822 11.2697 9.46607C11.5912 9.55393 11.5912 9.55421 11.5911 9.5545C11.591 9.5546 11.591 9.55489 11.5909 9.55507C11.5908 9.55545 11.5907 9.55583 11.5906 9.55621C11.5904 9.55696 11.5902 9.55771 11.59 9.55844C11.5896 9.55991 11.5891 9.56135 11.5887 9.56275C11.5878 9.56555 11.587 9.56823 11.5861 9.57077C11.5844 9.57585 11.5826 9.58043 11.581 9.58455C11.5776 9.59279 11.5744 9.59912 11.5716 9.60385C11.5658 9.61371 11.5627 9.6155 11.5665 9.61213C11.5723 9.60694 11.6207 9.56605 11.766 9.54263L11.6599 8.88446ZM10.9364 9.46607V11.75H11.603V9.46607H10.9364ZM10.9364 11.75C10.9364 11.9341 10.7871 12.0833 10.603 12.0833V12.75C11.1553 12.75 11.603 12.3023 11.603 11.75H10.9364ZM10.603 12.0833H7.79709V12.75H10.603V12.0833ZM8.13043 11.75C8.13043 11.9341 7.98123 12.0833 7.79709 12.0833V12.75C8.34936 12.75 8.79709 12.3023 8.79709 11.75H8.13043ZM8.13043 9.21354V11.75H8.79709V9.21354H8.13043Z" fill="#2A2F39"/>
<path d="M8.5 9.34166H11.2333" stroke="#2A2F39" stroke-linecap="round" stroke-linejoin="round"/>
<path d="M8.94323 9.21353C8.5517 9.27666 8.42743 9.21353 8.42743 9.21353V11.75C8.42743 12.1182 8.1289 12.4167 7.76077 12.4167H3.82035C3.45216 12.4167 3.15368 12.1182 3.15368 11.75V9.21353C3.15368 9.21353 3.02818 9.28438 2.63788 9.21353C0.761181 8.87289 1.531 5.58333 5.58771 5.58333C9.64443 5.58333 10.9394 8.89167 8.94323 9.21353Z" stroke="#2A2F39" stroke-linecap="round" stroke-linejoin="round"/>
<path d="M5.76672 5.58333H8.50004" stroke="#2A2F39" stroke-linecap="round" stroke-linejoin="round"/>
<path d="M9.07516 6.06865C9.07516 6.06865 7.36447 4.77753 7.21143 4.18969C7.0584 3.60185 7.51264 3 7.51264 3L12.2104 6.55428L11.7046 7.22454C11.4824 7.51894 11.0634 7.57697 10.7695 7.35405L9.07516 6.06865Z" fill="#8692A3"/>
<path d="M10.7625 6.39739L11.2167 5.79553L13.9251 7.83963C14.0913 7.96507 14.1243 8.20148 13.9989 8.36768C13.8734 8.53388 13.637 8.56692 13.4708 8.44149L10.7625 6.39739Z" fill="#8692A3"/>
</svg>
